PathFileType	4	(X/Y/Z)	..\data\SUBJ01\dynamic\walk.trc
DataRate	CameraRate	NumFrames	NumMarkers	Units	OrigDataRate	OrigDataStartFrame	OrigNumFrames
100.000000	100.000000	8	21	mm	100.000000	66	337
Frame#	Time	C7			T10			CLAV			STRN			LSHO			RSHO			LASI			RASI			SACR			LTHI			LKNE			LTIB			LANK			LHEE			LTOE			RTHI			RKNE			RTIB			RANK			RHEE			RTOE			
		X1	Y1	Z1	X2	Y2	Z2	X3	Y3	Z3	X4	Y4	Z4	X5	Y5	Z5	X6	Y6	Z6	X7	Y7	Z7	X8	Y8	Z8	X9	Y9	Z9	X10	Y10	Z10	X11	Y11	Z11	X12	Y12	Z12	X13	Y13	Z13	X14	Y14	Z14	X15	Y15	Z15	X16	Y16	Z16	X17	Y17	Z17	X18	Y18	Z18	X19	Y19	Z19	X20	Y20	Z20	X21	Y21	Z21	

67	1.61	597.2091064453126	1337.460327148438	22.04595035062721	535.6524658203126	1115.361694335938	22.04595035062721	746.3615722656251	1241.355224609375	21.95847742216747	807.9893188476565	1085.873046875	22.04595035062721	657.3640747070314	1308.816772460938	-152.0801736032232	668.8695068359376	1263.181518554688	192.0803046712631	725.1535034179689	844.3167114257815	-120.859251464656	740.3900146484376	854.5788574218752	160.859251464656	555.1079711914064	856.6708984375002	20	630.7176513671876	582.5708618164064	-196.594804781495	625.9091186523439	405.5497131347657	-109.6938565403288	441.793670654297	266.1249389648438	-159.4973066312762	348.5771179199219	176.6546630859375	-111.7562165806763	310.4431762695313	220.928207397461	-65.58032746445977	381.9263000488282	71.8114471435547	-74.43897087404167	765.1656494140626	577.2598876953126	213.5914694104505	837.0806274414065	422.5683593750001	149.1302321308147	839.2068481445315	182.291748046875	196.2680469139518	819.3195800781252	61.38778686523439	152.8880051473318	763.3128051757814	52.848445892334	105.7255595369172	929.9151611328127	44.95940399169923	114.6938823150058	
68	1.62	608.3107910156251	1338.890869140625	22.04595035062721	546.9066162109376	1116.776000976563	22.04595035062721	757.5712280273439	1242.968139648438	21.95847742216747	819.301696777344	1087.4833984375	22.04595035062721	668.3289794921876	1310.503295898438	-152.0801736032232	680.9863281250001	1264.810180664063	192.0803046712631	736.7877807617189	845.3419189453127	-120.859251464656	751.7415771484376	856.828308105469	160.859251464656	566.4622192382814	858.0086059570315	20	648.4150390625001	582.5061645507814	-196.594804781495	650.2587280273439	405.6316528320314	-109.6938565403288	463.6848144531251	272.2928771972657	-159.4973066312762	368.1670227050782	184.7924041748047	-111.7562165806763	332.1471862792969	230.438949584961	-65.58032746445977	397.1685180664064	77.26479339599611	-74.43897087404167	774.1306762695315	577.8356323242189	213.5914694104505	842.9407958984377	421.849334716797	149.1302321308147	841.9373779296877	181.6582183837891	196.2680469139518	819.7959594726565	61.34079360961915	152.8880051473318	763.5850219726564	53.14336013793947	105.7255595369172	930.2264404296877	44.62487411499024	114.6938823150058	
69	1.63	619.3153076171876	1340.4033203125	22.04595035062721	558.0152587890626	1118.289428710938	22.04595035062721	768.6497802734377	1244.616455078125	21.95847742216747	830.4527587890627	1089.113037109375	22.04595035062721	679.0581054687501	1312.119262695313	-152.0801736032232	693.0072631835939	1266.548706054688	192.0803046712631	748.2473144531251	846.4879150390627	-120.859251464656	762.8615722656251	858.9553833007815	160.859251464656	577.6458740234376	859.4467773437502	20	666.1787109375001	582.6243896484376	-196.594804781495	674.7760620117189	406.2543029785157	-109.6938565403288	486.4567260742189	278.1197814941407	-159.4973066312762	389.0384521484376	192.2190704345704	-111.7562165806763	354.6254577636719	238.8014526367188	-65.58032746445977	414.7946777343751	82.81478881835939	-74.43897087404167	782.5201416015627	578.2863769531251	213.5914694104505	847.9855957031252	420.8931274414064	149.1302321308147	844.2510375976565	181.0431365966797	196.2680469139518	820.1370849609377	61.2761917114258	152.8880051473318	763.7905273437501	53.39949035644533	105.7255595369172	930.4541015625002	44.40307998657227	114.6938823150058	
70	1.64	630.2364501953126	1341.99755859375	22.04595035062721	568.9880981445314	1119.890869140625	22.04595035062721	779.6069946289065	1246.29736328125	21.95847742216747	841.4569091796877	1090.766967773438	22.04595035062721	689.5546264648439	1313.655151367188	-152.0801736032232	704.9239501953126	1268.395629882813	192.0803046712631	759.5573730468751	847.7740478515627	-120.859251464656	773.7549438476565	860.967224121094	160.859251464656	588.6747436523439	860.9741210937502	20	683.9786987304689	582.9454345703126	-196.594804781495	699.3208618164064	407.4679565429689	-109.6938565403288	509.9698486328126	283.4928894042969	-159.4973066312762	411.0786743164064	198.7605438232422	-111.7562165806763	377.7036132812501	245.8650665283204	-65.58032746445977	434.7534179687501	88.22055816650392	-74.43897087404167	790.4578857421877	578.7268066406251	213.5914694104505	852.302185058594	419.7714233398439	149.1302321308147	846.1953125000002	180.4544677734375	196.2680469139518	820.3687744140627	61.19714355468751	152.8880051473318	763.9464111328126	53.62922668457033	105.7255595369172	930.6206054687502	44.25298309326173	114.6938823150058	
71	1.65	641.0850219726564	1343.669311523438	22.04595035062721	579.8385620117189	1121.565307617188	22.04595035062721	790.4547119140627	1248.008178710938	21.95847742216747	852.3306274414065	1092.449951171875	22.04595035062721	699.8307495117189	1315.109130859375	-152.0801736032232	716.7325439453126	1270.3515625	192.0803046712631	770.7519531250002	849.2136230468752	-120.859251464656	784.4295654296877	862.876159667969	160.859251464656	599.5675048828126	862.5749511718752	20	701.8115844726564	583.4868164062501	-196.594804781495	723.7733154296876	409.2881469726564	-109.6938565403288	534.0907592773439	288.3116455078126	-159.4973066312762	434.1716918945314	204.2657928466797	-111.7562165806763	401.241180419922	251.517562866211	-65.58032746445977	456.9156188964845	93.24198150634767	-74.43897087404167	798.0412597656252	579.2332153320314	213.5914694104505	855.9885864257815	418.5702514648439	149.1302321308147	847.8127441406252	179.8987731933594	196.2680469139518	820.5144653320315	61.10866928100587	152.8880051473318	764.0672607421876	53.84231567382814	105.7255595369172	930.7443847656252	44.14403915405274	114.6938823150058	
72	1.66	651.8684082031251	1345.408081054688	22.04595035062721	590.5825195312501	1123.29345703125	22.04595035062721	801.2056274414065	1249.744018554688	21.95847742216747	863.091247558594	1094.163940429688	22.04595035062721	709.9050903320314	1316.484252929688	-152.0801736032232	728.4338989257814	1272.416137695313	192.0803046712631	781.8713378906252	850.8096923828127	-120.859251464656	794.8966064453127	864.6959228515627	160.859251464656	610.3442382812501	864.2292480468752	20	719.6962280273439	584.2633666992189	-196.594804781495	748.0328369140626	411.6940917968751	-109.6938565403288	558.6976318359376	292.4859924316407	-159.4973066312762	458.2036743164064	208.6113739013672	-111.7562165806763	425.1338500976564	255.6812591552735	-65.58032746445977	481.0965270996095	97.66172027587893	-74.43897087404167	805.3286743164065	579.8319091796876	213.5914694104505	859.1504516601565	417.3733520507814	149.1302321308147	849.1425781250002	179.3811798095703	196.2680469139518	820.5943603515627	61.01619720458986	152.8880051473318	764.1650390625001	54.04551315307619	105.7255595369172	930.8399047851565	44.05456161499024	114.6938823150058	
73	1.67	662.5905151367189	1347.1962890625	22.04595035062721	601.2372436523439	1125.051879882813	22.04595035062721	811.8726196289065	1251.496337890625	21.95847742216747	873.756530761719	1095.9052734375	22.04595035062721	719.8002929687501	1317.785400390625	-152.0801736032232	740.0326538085939	1274.584106445313	192.0803046712631	792.9576416015627	852.5525512695315	-120.859251464656	805.1706542968752	866.4381103515627	160.859251464656	621.0252685546876	865.913513183594	20	737.6637573242189	585.2868041992189	-196.594804781495	772.0161743164065	414.6314392089845	-109.6938565403288	583.6824340820314	295.9354553222657	-159.4973066312762	483.0668334960939	211.705062866211	-111.7562165806763	449.3113098144532	258.3076477050782	-65.58032746445977	507.0821838378907	101.3034896850586	-74.43897087404167	812.3421020507815	580.5045166015626	213.5914694104505	861.896911621094	416.2503967285157	149.1302321308147	850.221862792969	178.9056396484375	196.2680469139518	820.6257324218752	60.92483520507814	152.8880051473318	764.2492675781251	54.24296951293947	105.7255595369172	930.9180908203127	43.97030258178712	114.6938823150058	
74	1.68	673.2530517578126	1349.009643554688	22.04595035062721	611.8201904296876	1126.813842773438	22.04595035062721	822.4680786132815	1253.252685546875	21.95847742216747	884.343933105469	1097.663940429688	22.04595035062721	729.5407104492189	1319.017456054688	-152.0801736032232	751.5368041992189	1276.843383789063	192.0803046712631	804.050720214844	854.419128417969	-120.859251464656	815.2700195312502	868.1103515625002	160.859251464656	631.6298217773439	867.6019287109377	20	755.7435913085939	586.5648193359376	-196.594804781495	795.6533203125002	418.0188293457032	-109.6938565403288	608.9516601562501	298.5903625488282	-159.4973066312762	508.6629028320314	213.487289428711	-111.7562165806763	473.7330322265626	259.3720092773438	-65.58032746445977	534.6546020507814	104.043815612793	-74.43897087404167	819.0819091796877	581.2058105468751	213.5914694104505	864.3359985351565	415.2509765625001	149.1302321308147	851.0866699218752	178.474853515625	196.2680469139518	820.6232910156252	60.8391456604004	152.8880051473318	764.3281250000001	54.43699264526369	105.7255595369172	930.9873046875002	43.88315963745118	114.6938823150058	
